<svg width="64" height="64" viewBox="0 0 64 64" xmlns="http://www.w3.org/2000/svg" role="img" aria-label="SYT - Sell Your Things">
  <defs>
    <linearGradient id="syt-fav-bg" x1="0%" y1="0%" x2="100%" y2="100%">
      <stop offset="0%" stop-color="#ffa15c"/>
      <stop offset="60%" stop-color="#ff6b35"/>
      <stop offset="100%" stop-color="#d63c0a"/>
    </linearGradient>
    <radialGradient id="syt-fav-gloss" cx="30%" cy="20%" r="60%">
      <stop offset="0%" stop-color="#ffffff" stop-opacity="0.35"/>
      <stop offset="60%" stop-color="#ffffff" stop-opacity="0"/>
    </radialGradient>
  </defs>

  <path d="M40 4 L60 24 V52 c0 4.4 -3.6 8 -8 8 H12 c-4.4 0 -8 -3.6 -8 -8 V12 c0 -4.4 3.6 -8 8 -8 Z"
        fill="url(#syt-fav-bg)"/>
  <path d="M40 4 L60 24 V52 c0 4.4 -3.6 8 -8 8 H12 c-4.4 0 -8 -3.6 -8 -8 V12 c0 -4.4 3.6 -8 8 -8 Z"
        fill="url(#syt-fav-gloss)"/>

  <circle cx="50" cy="14" r="3.2" fill="#ffffff"/>
  <circle cx="50" cy="14" r="1.1" fill="#ff6b35"/>

  <ellipse cx="22" cy="32" rx="4" ry="4.5" fill="#ffffff"/>
  <ellipse cx="40" cy="32" rx="4" ry="4.5" fill="#ffffff"/>
  <circle cx="23.2" cy="31.2" r="1.5" fill="#1f2937"/>
  <circle cx="41.2" cy="31.2" r="1.5" fill="#1f2937"/>

  <path d="M17 42 Q32 56 47 42"
        stroke="#ffffff" stroke-width="3.6" stroke-linecap="round" fill="none"/>
  <path d="M45 41.5 L50 38 L48.5 43"
        stroke="#ffffff" stroke-width="3.6" stroke-linecap="round" stroke-linejoin="round" fill="none"/>
</svg>
