<svg width="146" height="40" viewBox="0 0 146 40" xmlns="http://www.w3.org/2000/svg" role="img" aria-label="SYT - Sell Your Things">
  <defs>
    <linearGradient id="syt-logo-bg" x1="0%" y1="0%" x2="100%" y2="100%">
      <stop offset="0%" stop-color="#ffa15c"/>
      <stop offset="60%" stop-color="#ff6b35"/>
      <stop offset="100%" stop-color="#d63c0a"/>
    </linearGradient>
    <radialGradient id="syt-logo-gloss" cx="30%" cy="20%" r="60%">
      <stop offset="0%" stop-color="#ffffff" stop-opacity="0.35"/>
      <stop offset="60%" stop-color="#ffffff" stop-opacity="0"/>
    </radialGradient>
  </defs>

  <g transform="translate(2,2)">
    <path d="M22 0 L36 14 V30 c0 2.8 -2.2 5 -5 5 H5 c-2.8 0 -5 -2.2 -5 -5 V5 c0 -2.8 2.2 -5 5 -5 Z"
          fill="url(#syt-logo-bg)"/>
    <path d="M22 0 L36 14 V30 c0 2.8 -2.2 5 -5 5 H5 c-2.8 0 -5 -2.2 -5 -5 V5 c0 -2.8 2.2 -5 5 -5 Z"
          fill="url(#syt-logo-gloss)"/>

    <circle cx="29" cy="7" r="1.9" fill="#ffffff"/>
    <circle cx="29" cy="7" r="0.7" fill="#ff6b35"/>

    <ellipse cx="13" cy="18" rx="2.4" ry="2.7" fill="#ffffff"/>
    <ellipse cx="24" cy="18" rx="2.4" ry="2.7" fill="#ffffff"/>
    <circle cx="13.6" cy="17.6" r="0.9" fill="#1f2937"/>
    <circle cx="24.6" cy="17.6" r="0.9" fill="#1f2937"/>

    <path d="M9 24 Q18.5 32 28 24"
          stroke="#ffffff" stroke-width="2.2" stroke-linecap="round" fill="none"/>
    <path d="M27 23.6 L30 21.5 L29 25"
          stroke="#ffffff" stroke-width="2.2" stroke-linecap="round" stroke-linejoin="round" fill="none"/>
  </g>

  <g transform="translate(50,0)">
    <text x="0" y="29"
          font-family="system-ui, -apple-system, 'Segoe UI', Roboto, Helvetica, Arial, sans-serif"
          font-weight="900" font-size="26" fill="#1f2937" letter-spacing="-1">S</text>
    <g transform="translate(20,4)" stroke="#ff6b35" stroke-width="3.6" stroke-linecap="round" stroke-linejoin="round" fill="none">
      <path d="M2 22 L10 4 L18 22"/>
      <path d="M10 4 L10 26"/>
      <path d="M6 9 L10 4 L14 9"/>
    </g>
    <text x="44" y="29"
          font-family="system-ui, -apple-system, 'Segoe UI', Roboto, Helvetica, Arial, sans-serif"
          font-weight="900" font-size="26" fill="#1f2937" letter-spacing="-1">T</text>
  </g>

  <text x="50" y="38"
        font-family="system-ui, -apple-system, 'Segoe UI', Roboto, Helvetica, Arial, sans-serif"
        font-weight="600" font-size="7" fill="#6b7280" letter-spacing="2">SELL YOUR THINGS</text>
</svg>
